<?xml version="1.0" standalone="no"?>
<!DOCTYPE svg PUBLIC "-//W3C//DTD SVG 20010904//EN"
 "http://www.w3.org/TR/2001/REC-SVG-20010904/DTD/svg10.dtd">
<svg version="1.0" xmlns="http://www.w3.org/2000/svg"
 width="797.000000pt" height="631.000000pt" viewBox="0 0 797.000000 631.000000"
 preserveAspectRatio="xMidYMid meet">
<metadata>
Created by potrace 1.16, written by Peter Selinger 2001-2019
</metadata>
<g transform="translate(0.000000,631.000000) scale(0.100000,-0.100000)"
fill="#000000" stroke="none">
<path d="M2410 5188 c-164 -28 -297 -67 -410 -121 -350 -164 -623 -438 -799
-801 -131 -271 -191 -534 -191 -841 0 -523 194 -995 551 -1341 204 -197 384
-298 705 -395 111 -33 415 -45 564 -22 306 48 600 200 833 430 149 147 314
376 285 394 -20 13 -19 14 -88 -57 -143 -145 -311 -242 -498 -288 -85 -21
-293 -21 -376 -1 -208 53 -399 177 -565 368 -121 140 -244 371 -314 592 -85
263 -102 385 -102 705 1 273 11 367 62 580 88 366 254 652 428 740 43 22 61
25 154 25 269 -2 481 -98 509 -231 21 -99 -7 -171 -122 -315 -133 -164 -173
-275 -163 -439 7 -97 26 -161 74 -240 77 -130 198 -217 351 -255 81 -19 143
-19 229 1 209 48 369 206 419 411 52 218 -44 452 -277 679 -221 214 -531 369
-834 416 -93 14 -356 18 -425 6z"/>
<path d="M5330 5180 c-25 -9 -56 -22 -70 -28 -41 -17 -110 -82 -145 -137 -131
-205 -56 -464 165 -569 60 -29 73 -31 170 -31 96 0 110 2 164 30 76 37 156
117 192 192 26 53 29 68 29 163 0 97 -2 110 -32 170 -33 69 -112 154 -172 185
-92 47 -219 58 -301 25z"/>
<path d="M5658 4135 c-3 -3 -57 -13 -119 -21 -150 -21 -213 -30 -339 -48 -58
-9 -153 -22 -213 -30 -149 -19 -172 -40 -83 -75 57 -24 103 -65 132 -121 18
-34 19 -93 24 -1400 l5 -1365 24 -45 c13 -25 65 -88 116 -141 99 -103 135
-163 135 -223 0 -110 -101 -173 -328 -206 -177 -25 -407 37 -461 124 -42 67
-22 134 78 258 89 110 114 172 115 278 1 99 -14 154 -62 228 -53 81 -115 127
-220 163 -174 58 -380 -34 -467 -208 -40 -79 -47 -209 -16 -298 60 -170 228
-346 433 -453 318 -166 660 -177 944 -31 230 117 400 302 459 496 13 41 15
269 15 1559 l0 1511 -26 27 c-23 22 -35 26 -84 26 -31 0 -59 -2 -62 -5z"/>
</g>
</svg>
